<?xml version="1.0" encoding="utf-8"?>
<!-- Generator: Adobe Illustrator 16.2.0, SVG Export Plug-In . SVG Version: 6.00 Build 0)  -->
<!DOCTYPE svg PUBLIC "-//W3C//DTD SVG 1.1//EN" "http://www.w3.org/Graphics/SVG/1.1/DTD/svg11.dtd">
<svg version="1.1" id="Layer_1" xmlns="http://www.w3.org/2000/svg" xmlns:xlink="http://www.w3.org/1999/xlink" x="0px" y="0px"
	 width="800px" height="600px" viewBox="0 0 800 600" enable-background="new 0 0 800 600" xml:space="preserve">
<g>
	<g>
		<path fill="#BA9569" d="M906.289,161.221c2.187,0,4.213-4.442,1.422-4.442C905.524,156.779,903.498,161.221,906.289,161.221
			L906.289,161.221z"/>
	</g>
</g>
<g display="none">
	<linearGradient id="SVGID_1_" gradientUnits="userSpaceOnUse" x1="107.8818" y1="302.291" x2="170" y2="302.291">
		<stop  offset="0" style="stop-color:#FFC62E"/>
		<stop  offset="1" style="stop-color:#33121A"/>
	</linearGradient>
	<path display="inline" fill="url(#SVGID_1_)" d="M132,220.583c-2,32-26,130-24,160c32,6,60,8,62-28c0-22-2-72-14-86"/>
</g>
<g display="none">
	<linearGradient id="SVGID_2_" gradientUnits="userSpaceOnUse" x1="134.25" y1="235.3379" x2="236.4077" y2="235.3379">
		<stop  offset="0" style="stop-color:#007A1F"/>
		<stop  offset="1" style="stop-color:#6BD617"/>
	</linearGradient>
	<path display="inline" fill="url(#SVGID_2_)" d="M156,266.583c-16-18-30-46-16-70c16-24,68-32,86-8c44,52-66,68-62,108"/>
</g>
<g>
	
		<linearGradient id="SVGID_3_" gradientUnits="userSpaceOnUse" x1="-61.7676" y1="180.5557" x2="362.3828" y2="180.5557" gradientTransform="matrix(-0.5654 -0.0492 -0.0279 0.9988 562.4171 23.0335)">
		<stop  offset="0" style="stop-color:#0B7C3F"/>
		<stop  offset="1" style="stop-color:#7AC043"/>
	</linearGradient>
	<path fill="url(#SVGID_3_)" d="M537.127,274.119c39.548-41.698,75.591-108.037,45.39-168.174
		c-34.877-60.389-156.128-86.334-201.06-30.206C272.403,196.755,523.393,252.933,509.605,349.831"/>
</g>
<g>
	
		<linearGradient id="SVGID_4_" gradientUnits="userSpaceOnUse" x1="-162.2915" y1="356.3477" x2="99.2939" y2="356.3477" gradientTransform="matrix(-0.5661 0 0 1 558.186 0)">
		<stop  offset="0" style="stop-color:#FFC531"/>
		<stop  offset="1" style="stop-color:#31171C"/>
	</linearGradient>
	<path fill="url(#SVGID_4_)" d="M592.572,157.385c4.711,77.901,61.927,316.61,57.21,389.528
		c-76.325,14.753-143.096,19.517-147.806-68.003c0-53.714,4.71-175.42,33.387-209.548"/>
</g>
</svg>
